<mxfile host="app.diagrams.net" modified="2021-04-20T12:59:09.256Z" agent="5.0 (Windows NT 10.0; Win64; x64) AppleWebKit/537.36 (KHTML, like Gecko) Chrome/90.0.4430.72 Safari/537.36" etag="YmiMKzoqBbgJpULtTvmy" version="14.6.3" type="github">
  <diagram id="C5RBs43oDa-KdzZeNtuy" name="Page-1">
    <mxGraphModel dx="9390" dy="722" grid="1" gridSize="10" guides="1" tooltips="1" connect="1" arrows="1" fold="1" page="1" pageScale="1" pageWidth="8027" pageHeight="11069" background="none" math="0" shadow="1">
      <root>
        <mxCell id="WIyWlLk6GJQsqaUBKTNV-0" />
        <mxCell id="WIyWlLk6GJQsqaUBKTNV-1" parent="WIyWlLk6GJQsqaUBKTNV-0" />
        <mxCell id="8WVwRGKOpk3RZ63GeHSR-61" style="edgeStyle=orthogonalEdgeStyle;rounded=0;orthogonalLoop=1;jettySize=auto;html=1;entryX=0.5;entryY=0;entryDx=0;entryDy=0;" edge="1" parent="WIyWlLk6GJQsqaUBKTNV-1" source="WIyWlLk6GJQsqaUBKTNV-3" target="8WVwRGKOpk3RZ63GeHSR-57">
          <mxGeometry relative="1" as="geometry" />
        </mxCell>
        <mxCell id="WIyWlLk6GJQsqaUBKTNV-3" value="Client through Website" style="rounded=1;whiteSpace=wrap;html=1;fontSize=12;glass=0;strokeWidth=1;shadow=0;" parent="WIyWlLk6GJQsqaUBKTNV-1" vertex="1">
          <mxGeometry x="180" y="30" width="120" height="40" as="geometry" />
        </mxCell>
        <mxCell id="8WVwRGKOpk3RZ63GeHSR-62" style="edgeStyle=orthogonalEdgeStyle;rounded=0;orthogonalLoop=1;jettySize=auto;html=1;entryX=0.5;entryY=0;entryDx=0;entryDy=0;" edge="1" parent="WIyWlLk6GJQsqaUBKTNV-1" source="8WVwRGKOpk3RZ63GeHSR-0" target="8WVwRGKOpk3RZ63GeHSR-10">
          <mxGeometry relative="1" as="geometry" />
        </mxCell>
        <mxCell id="8WVwRGKOpk3RZ63GeHSR-0" value="Sales&lt;br&gt;(Enquiry)" style="rounded=1;whiteSpace=wrap;html=1;fontSize=12;glass=0;strokeWidth=1;shadow=0;" vertex="1" parent="WIyWlLk6GJQsqaUBKTNV-1">
          <mxGeometry x="590" y="30" width="120" height="40" as="geometry" />
        </mxCell>
        <mxCell id="8WVwRGKOpk3RZ63GeHSR-13" value="" style="edgeStyle=orthogonalEdgeStyle;rounded=0;orthogonalLoop=1;jettySize=auto;html=1;" edge="1" parent="WIyWlLk6GJQsqaUBKTNV-1" source="8WVwRGKOpk3RZ63GeHSR-10" target="8WVwRGKOpk3RZ63GeHSR-12">
          <mxGeometry relative="1" as="geometry" />
        </mxCell>
        <mxCell id="8WVwRGKOpk3RZ63GeHSR-10" value="Create RFQ" style="whiteSpace=wrap;html=1;rounded=1;shadow=0;strokeWidth=1;glass=0;" vertex="1" parent="WIyWlLk6GJQsqaUBKTNV-1">
          <mxGeometry x="590" y="110" width="120" height="40" as="geometry" />
        </mxCell>
        <mxCell id="8WVwRGKOpk3RZ63GeHSR-68" style="edgeStyle=orthogonalEdgeStyle;rounded=0;orthogonalLoop=1;jettySize=auto;html=1;entryX=0.5;entryY=0;entryDx=0;entryDy=0;" edge="1" parent="WIyWlLk6GJQsqaUBKTNV-1" source="8WVwRGKOpk3RZ63GeHSR-12" target="8WVwRGKOpk3RZ63GeHSR-66">
          <mxGeometry relative="1" as="geometry" />
        </mxCell>
        <mxCell id="8WVwRGKOpk3RZ63GeHSR-12" value="Add Items" style="whiteSpace=wrap;html=1;rounded=1;shadow=0;strokeWidth=1;glass=0;" vertex="1" parent="WIyWlLk6GJQsqaUBKTNV-1">
          <mxGeometry x="590" y="180" width="120" height="40" as="geometry" />
        </mxCell>
        <mxCell id="8WVwRGKOpk3RZ63GeHSR-17" value="" style="edgeStyle=orthogonalEdgeStyle;rounded=0;orthogonalLoop=1;jettySize=auto;html=1;entryX=0.5;entryY=0;entryDx=0;entryDy=0;" edge="1" parent="WIyWlLk6GJQsqaUBKTNV-1" source="8WVwRGKOpk3RZ63GeHSR-14" target="8WVwRGKOpk3RZ63GeHSR-18">
          <mxGeometry relative="1" as="geometry">
            <mxPoint x="440" y="389.9999999999999" as="targetPoint" />
            <Array as="points">
              <mxPoint x="440" y="370" />
              <mxPoint x="440" y="370" />
            </Array>
          </mxGeometry>
        </mxCell>
        <mxCell id="8WVwRGKOpk3RZ63GeHSR-14" value="Add Buyer Details" style="whiteSpace=wrap;html=1;rounded=1;shadow=0;strokeWidth=1;glass=0;" vertex="1" parent="WIyWlLk6GJQsqaUBKTNV-1">
          <mxGeometry x="180" y="250" width="120" height="40" as="geometry" />
        </mxCell>
        <mxCell id="8WVwRGKOpk3RZ63GeHSR-26" value="" style="edgeStyle=orthogonalEdgeStyle;rounded=0;orthogonalLoop=1;jettySize=auto;html=1;" edge="1" parent="WIyWlLk6GJQsqaUBKTNV-1" source="8WVwRGKOpk3RZ63GeHSR-18" target="8WVwRGKOpk3RZ63GeHSR-25">
          <mxGeometry relative="1" as="geometry" />
        </mxCell>
        <mxCell id="8WVwRGKOpk3RZ63GeHSR-33" value="Client" style="edgeLabel;html=1;align=center;verticalAlign=middle;resizable=0;points=[];" vertex="1" connectable="0" parent="8WVwRGKOpk3RZ63GeHSR-26">
          <mxGeometry x="-0.1795" relative="1" as="geometry">
            <mxPoint as="offset" />
          </mxGeometry>
        </mxCell>
        <mxCell id="8WVwRGKOpk3RZ63GeHSR-28" value="" style="edgeStyle=orthogonalEdgeStyle;rounded=0;orthogonalLoop=1;jettySize=auto;html=1;" edge="1" parent="WIyWlLk6GJQsqaUBKTNV-1" source="8WVwRGKOpk3RZ63GeHSR-18" target="8WVwRGKOpk3RZ63GeHSR-27">
          <mxGeometry relative="1" as="geometry" />
        </mxCell>
        <mxCell id="8WVwRGKOpk3RZ63GeHSR-34" value="Sales" style="edgeLabel;html=1;align=center;verticalAlign=middle;resizable=0;points=[];" vertex="1" connectable="0" parent="8WVwRGKOpk3RZ63GeHSR-28">
          <mxGeometry x="-0.2656" y="1" relative="1" as="geometry">
            <mxPoint as="offset" />
          </mxGeometry>
        </mxCell>
        <mxCell id="8WVwRGKOpk3RZ63GeHSR-18" value="&lt;span&gt;&lt;font style=&quot;font-size: 11px&quot;&gt;Complete RFQ/Send for Quotation&lt;/font&gt;&lt;/span&gt;" style="rhombus;whiteSpace=wrap;html=1;" vertex="1" parent="WIyWlLk6GJQsqaUBKTNV-1">
          <mxGeometry x="395" y="390" width="90" height="90" as="geometry" />
        </mxCell>
        <mxCell id="8WVwRGKOpk3RZ63GeHSR-35" style="edgeStyle=orthogonalEdgeStyle;rounded=0;orthogonalLoop=1;jettySize=auto;html=1;entryX=0;entryY=0.5;entryDx=0;entryDy=0;" edge="1" parent="WIyWlLk6GJQsqaUBKTNV-1" source="8WVwRGKOpk3RZ63GeHSR-25" target="8WVwRGKOpk3RZ63GeHSR-27">
          <mxGeometry relative="1" as="geometry">
            <Array as="points">
              <mxPoint x="250" y="540" />
            </Array>
          </mxGeometry>
        </mxCell>
        <mxCell id="8WVwRGKOpk3RZ63GeHSR-36" value="After confirming requirements &lt;br&gt;from New Client" style="edgeLabel;html=1;align=center;verticalAlign=middle;resizable=0;points=[];" vertex="1" connectable="0" parent="8WVwRGKOpk3RZ63GeHSR-35">
          <mxGeometry x="-0.721" y="2" relative="1" as="geometry">
            <mxPoint x="-2" y="3" as="offset" />
          </mxGeometry>
        </mxCell>
        <mxCell id="8WVwRGKOpk3RZ63GeHSR-25" value="Auto Assign Salesperson" style="whiteSpace=wrap;html=1;rounded=1;" vertex="1" parent="WIyWlLk6GJQsqaUBKTNV-1">
          <mxGeometry x="190" y="412.5" width="120" height="45" as="geometry" />
        </mxCell>
        <mxCell id="8WVwRGKOpk3RZ63GeHSR-27" value="Auto Assign to Supplier Team" style="whiteSpace=wrap;html=1;shadow=0;rounded=1;" vertex="1" parent="WIyWlLk6GJQsqaUBKTNV-1">
          <mxGeometry x="380" y="520" width="120" height="40" as="geometry" />
        </mxCell>
        <mxCell id="8WVwRGKOpk3RZ63GeHSR-48" value="" style="edgeStyle=orthogonalEdgeStyle;rounded=0;orthogonalLoop=1;jettySize=auto;html=1;" edge="1" parent="WIyWlLk6GJQsqaUBKTNV-1" source="8WVwRGKOpk3RZ63GeHSR-45" target="8WVwRGKOpk3RZ63GeHSR-47">
          <mxGeometry relative="1" as="geometry">
            <Array as="points">
              <mxPoint x="180" y="270" />
              <mxPoint x="180" y="270" />
            </Array>
          </mxGeometry>
        </mxCell>
        <mxCell id="8WVwRGKOpk3RZ63GeHSR-49" value="Existing" style="edgeLabel;html=1;align=center;verticalAlign=middle;resizable=0;points=[];" vertex="1" connectable="0" parent="8WVwRGKOpk3RZ63GeHSR-48">
          <mxGeometry x="-0.2393" y="1" relative="1" as="geometry">
            <mxPoint x="-8" y="-1" as="offset" />
          </mxGeometry>
        </mxCell>
        <mxCell id="8WVwRGKOpk3RZ63GeHSR-51" value="" style="edgeStyle=orthogonalEdgeStyle;rounded=0;orthogonalLoop=1;jettySize=auto;html=1;" edge="1" parent="WIyWlLk6GJQsqaUBKTNV-1" source="8WVwRGKOpk3RZ63GeHSR-45" target="8WVwRGKOpk3RZ63GeHSR-50">
          <mxGeometry relative="1" as="geometry" />
        </mxCell>
        <mxCell id="8WVwRGKOpk3RZ63GeHSR-52" value="New" style="edgeLabel;html=1;align=center;verticalAlign=middle;resizable=0;points=[];" vertex="1" connectable="0" parent="8WVwRGKOpk3RZ63GeHSR-51">
          <mxGeometry x="-0.1864" y="2" relative="1" as="geometry">
            <mxPoint x="2" y="-10" as="offset" />
          </mxGeometry>
        </mxCell>
        <mxCell id="8WVwRGKOpk3RZ63GeHSR-45" value="Mobile Number" style="rhombus;whiteSpace=wrap;html=1;rounded=1;shadow=0;strokeWidth=1;glass=0;" vertex="1" parent="WIyWlLk6GJQsqaUBKTNV-1">
          <mxGeometry x="10" y="230" width="80" height="80" as="geometry" />
        </mxCell>
        <mxCell id="8WVwRGKOpk3RZ63GeHSR-56" value="" style="edgeStyle=orthogonalEdgeStyle;rounded=0;orthogonalLoop=1;jettySize=auto;html=1;entryX=0.5;entryY=0;entryDx=0;entryDy=0;" edge="1" parent="WIyWlLk6GJQsqaUBKTNV-1" source="8WVwRGKOpk3RZ63GeHSR-47" target="8WVwRGKOpk3RZ63GeHSR-55">
          <mxGeometry relative="1" as="geometry" />
        </mxCell>
        <mxCell id="8WVwRGKOpk3RZ63GeHSR-47" value="Login using password or OTP" style="whiteSpace=wrap;html=1;rounded=1;shadow=0;strokeWidth=1;glass=0;" vertex="1" parent="WIyWlLk6GJQsqaUBKTNV-1">
          <mxGeometry x="-170" y="250" width="120" height="40" as="geometry" />
        </mxCell>
        <mxCell id="8WVwRGKOpk3RZ63GeHSR-78" style="edgeStyle=orthogonalEdgeStyle;rounded=0;orthogonalLoop=1;jettySize=auto;html=1;" edge="1" parent="WIyWlLk6GJQsqaUBKTNV-1" source="8WVwRGKOpk3RZ63GeHSR-50" target="8WVwRGKOpk3RZ63GeHSR-55">
          <mxGeometry relative="1" as="geometry" />
        </mxCell>
        <mxCell id="8WVwRGKOpk3RZ63GeHSR-50" value="OTP to Mobile and Email" style="whiteSpace=wrap;html=1;rounded=1;shadow=0;strokeWidth=1;glass=0;" vertex="1" parent="WIyWlLk6GJQsqaUBKTNV-1">
          <mxGeometry x="-5" y="376.25" width="110" height="37.5" as="geometry" />
        </mxCell>
        <mxCell id="8WVwRGKOpk3RZ63GeHSR-55" value="&lt;span&gt;Complete Profile by adding:&lt;br&gt;Company Name, Industry, Turn Over, GSTIN, Address&amp;nbsp;&lt;br&gt;&lt;/span&gt;" style="shape=document;whiteSpace=wrap;html=1;boundedLbl=1;rounded=1;shadow=0;strokeWidth=1;glass=0;" vertex="1" parent="WIyWlLk6GJQsqaUBKTNV-1">
          <mxGeometry x="-170" y="340" width="120" height="110" as="geometry" />
        </mxCell>
        <mxCell id="8WVwRGKOpk3RZ63GeHSR-64" style="edgeStyle=orthogonalEdgeStyle;rounded=0;orthogonalLoop=1;jettySize=auto;html=1;entryX=0.5;entryY=0;entryDx=0;entryDy=0;" edge="1" parent="WIyWlLk6GJQsqaUBKTNV-1" source="8WVwRGKOpk3RZ63GeHSR-57" target="8WVwRGKOpk3RZ63GeHSR-63">
          <mxGeometry relative="1" as="geometry" />
        </mxCell>
        <mxCell id="8WVwRGKOpk3RZ63GeHSR-57" value="Create RFQ" style="whiteSpace=wrap;html=1;rounded=1;shadow=0;strokeWidth=1;glass=0;" vertex="1" parent="WIyWlLk6GJQsqaUBKTNV-1">
          <mxGeometry x="180" y="110" width="120" height="40" as="geometry" />
        </mxCell>
        <mxCell id="8WVwRGKOpk3RZ63GeHSR-65" style="edgeStyle=orthogonalEdgeStyle;rounded=0;orthogonalLoop=1;jettySize=auto;html=1;entryX=0.5;entryY=0;entryDx=0;entryDy=0;" edge="1" parent="WIyWlLk6GJQsqaUBKTNV-1" source="8WVwRGKOpk3RZ63GeHSR-63" target="8WVwRGKOpk3RZ63GeHSR-14">
          <mxGeometry relative="1" as="geometry" />
        </mxCell>
        <mxCell id="8WVwRGKOpk3RZ63GeHSR-63" value="Add Items" style="whiteSpace=wrap;html=1;rounded=1;shadow=0;strokeWidth=1;glass=0;" vertex="1" parent="WIyWlLk6GJQsqaUBKTNV-1">
          <mxGeometry x="180" y="180" width="120" height="40" as="geometry" />
        </mxCell>
        <mxCell id="8WVwRGKOpk3RZ63GeHSR-66" value="Add Buyer Details" style="whiteSpace=wrap;html=1;rounded=1;shadow=0;strokeWidth=1;glass=0;" vertex="1" parent="WIyWlLk6GJQsqaUBKTNV-1">
          <mxGeometry x="590" y="250" width="120" height="40" as="geometry" />
        </mxCell>
        <mxCell id="8WVwRGKOpk3RZ63GeHSR-70" value="Different &lt;br&gt;UI" style="ellipse;shape=cloud;whiteSpace=wrap;html=1;rounded=1;shadow=0;strokeWidth=1;glass=0;" vertex="1" parent="WIyWlLk6GJQsqaUBKTNV-1">
          <mxGeometry x="390" y="90" width="120" height="80" as="geometry" />
        </mxCell>
        <mxCell id="8WVwRGKOpk3RZ63GeHSR-75" value="" style="endArrow=none;dashed=1;html=1;dashPattern=1 3;strokeWidth=2;exitX=1;exitY=0.5;exitDx=0;exitDy=0;entryX=0.16;entryY=0.55;entryDx=0;entryDy=0;entryPerimeter=0;" edge="1" parent="WIyWlLk6GJQsqaUBKTNV-1" source="8WVwRGKOpk3RZ63GeHSR-57" target="8WVwRGKOpk3RZ63GeHSR-70">
          <mxGeometry width="50" height="50" relative="1" as="geometry">
            <mxPoint x="310" y="130" as="sourcePoint" />
            <mxPoint x="350" y="80" as="targetPoint" />
          </mxGeometry>
        </mxCell>
        <mxCell id="8WVwRGKOpk3RZ63GeHSR-76" value="" style="endArrow=none;dashed=1;html=1;dashPattern=1 3;strokeWidth=2;exitX=0.875;exitY=0.5;exitDx=0;exitDy=0;entryX=0;entryY=0.5;entryDx=0;entryDy=0;exitPerimeter=0;" edge="1" parent="WIyWlLk6GJQsqaUBKTNV-1" source="8WVwRGKOpk3RZ63GeHSR-70" target="8WVwRGKOpk3RZ63GeHSR-10">
          <mxGeometry width="50" height="50" relative="1" as="geometry">
            <mxPoint x="490.8" y="125.5" as="sourcePoint" />
            <mxPoint x="590.0000000000007" y="125.5" as="targetPoint" />
          </mxGeometry>
        </mxCell>
      </root>
    </mxGraphModel>
  </diagram>
</mxfile>
